<svg xmlns="http://www.w3.org/2000/svg" viewBox="0 0 1200 560" role="img" aria-labelledby="title desc">
<title id="title">Nexus Ops showcase cover</title><desc id="desc">Dark technical network visualization with glowing connection nodes, mobile interface, and Nexus Ops title.</desc>
<defs><linearGradient id="bg" x1="0" y1="0" x2="1" y2="1"><stop stop-color="#040a17"/><stop offset=".58" stop-color="#0b1631"/><stop offset="1" stop-color="#080e1e"/></linearGradient><radialGradient id="halo"><stop stop-color="#4755b2" stop-opacity=".45"/><stop offset="1" stop-color="#4755b2" stop-opacity="0"/></radialGradient>
<linearGradient id="screen" x1="0" y1="0" x2="1" y2="1"><stop stop-color="#081020"/><stop offset="1" stop-color="#040913"/></linearGradient><pattern id="dots" width="34" height="34" patternUnits="userSpaceOnUse"><circle cx="3" cy="3" r="1" fill="#3b6094" opacity=".35"/></pattern></defs>
<rect width="1200" height="560" fill="url(#bg)"/><rect width="1200" height="560" fill="url(#dots)"/><circle cx="890" cy="300" r="360" fill="url(#halo)"/>
<g stroke="#415f95" stroke-width="2" fill="none" opacity=".36"><path d="M0 130H170L240 200H350"/><path d="M0 190H132L200 254H350"/><path d="M0 250H80L146 317H350"/><path d="M0 360H112L165 405H350"/><path d="M1200 95H1100L1055 150H970"/><path d="M1200 170H1110L1025 240H960"/><path d="M1200 330H1110L1040 375H960"/><path d="M1200 445H1080L1010 420H960"/></g>
<g fill="#6786cb" opacity=".65"><circle cx="170" cy="130" r="5"/><circle cx="200" cy="254" r="4"/><circle cx="146" cy="317" r="5"/><circle cx="112" cy="360" r="4"/><circle cx="1100" cy="95" r="5"/><circle cx="1025" cy="240" r="5"/><circle cx="1040" cy="375" r="5"/></g>
<g transform="translate(65 60)"><path d="M0 18 36 0 70 18 70 57 36 77 0 57Z" fill="none" stroke="#3aa1fa" stroke-width="9"/><path d="M20 32 36 22 53 32 53 49 36 59" fill="none" stroke="#70d96a" stroke-width="9"/><path d="M14 10 35 0 53 10" fill="none" stroke="#ffba39" stroke-width="8"/><path d="M54 10 70 19 70 57 55 65" fill="none" stroke="#f1635b" stroke-width="8"/></g>
<text x="160" y="107" fill="#bec6da" font-family="Arial,Helvetica,sans-serif" font-size="19" letter-spacing="5">NEXUS DYNAMICS</text>
<text x="64" y="222" fill="#ffffff" font-family="Arial,Helvetica,sans-serif" font-size="70" font-weight="700" letter-spacing="3">NEXUS OPS</text>
<text x="66" y="265" fill="#8cc3ff" font-family="Arial,Helvetica,sans-serif" font-size="22" letter-spacing="3">THE CORE OF YOUR DATA NETWORK</text>
<path d="M65 300H630" stroke="#5d8ed0" stroke-width="2" opacity=".7"/>
<text x="66" y="347" fill="#c7d3ed" font-family="Arial,Helvetica,sans-serif" font-size="21">Explore connected systems, information, and teams.</text>
<text x="66" y="388" fill="#91a3c5" font-family="Arial,Helvetica,sans-serif" font-size="18">A visual direction for the Nexus Ops platform.</text>
<text x="66" y="444" fill="#e0e7fa" font-family="Arial,Helvetica,sans-serif" font-size="18" letter-spacing="2">MASTER YOUR NEXUS.</text>
<g transform="translate(755 36)"><rect x="0" y="0" width="313" height="492" rx="42" fill="#020409" stroke="#8493bc" stroke-width="3"/><rect x="12" y="15" width="289" height="460" rx="31" fill="url(#screen)" stroke="#25335a"/><rect x="102" y="20" width="112" height="19" rx="10" fill="#020409"/>
<text x="156" y="101" text-anchor="middle" fill="#dae4fa" font-family="Arial,Helvetica,sans-serif" font-size="17" letter-spacing="4">NEXUS OPS</text>
<g stroke="#6599e4" stroke-width="3" opacity=".85"><path d="M156 205L90 255L156 311L225 258Z" fill="none"/><path d="M156 205V311"/><path d="M90 255H225"/></g><g fill="#e0ecff"><circle cx="156" cy="205" r="13"/><circle cx="90" cy="255" r="12"/><circle cx="156" cy="311" r="14"/><circle cx="225" cy="258" r="12"/></g><g fill="#72a8e7"><circle cx="156" cy="205" r="5"/><circle cx="90" cy="255" r="5"/><circle cx="156" cy="311" r="6"/><circle cx="225" cy="258" r="5"/></g>
<text x="156" y="386" text-anchor="middle" fill="#8ea9da" font-family="Arial,Helvetica,sans-serif" font-size="14" letter-spacing="2">CONNECTED OPERATIONS</text></g>
<text x="66" y="525" fill="#7188aa" font-family="Arial,Helvetica,sans-serif" font-size="14" letter-spacing="2">PUBLIC PRODUCT SHOWCASE  /  PRIVATE SOURCE CODE</text>
</svg>